PathFileType	4	(X/Y/Z)	1_coords_data.trc
DataRate	CameraRate	NumFrames	NumMarkers	Units	OrigDataRate	OrigDataStartFrame	OrigNumFrames
30.0	30.0	7	21	m	30.0	41	61
Frame#	Time	THUMB_TIP	THUMB_IP	THUMB_MCP	THUMB_CMC	INDEX_TIP	INDEX_DIP	INDEX_PIP	INDEX_MCP	MIDDLE_TIP	MIDDLE_DIP	MIDDLE_PIP	MIDDLE_MCP	RING_TIP	RING_DIP	RING_PIP	RING_MCP	PINKY_TIP	PINKY_DIP	PINKY_PIP	PINKY_MCP	WRIST
X1	Y1	Z1	X2	Y2	Z2	X3	Y3	Z3	X4	Y4	Z4	X5	Y5	Z5	X6	Y6	Z6	X7	Y7	Z7	X8	Y8	Z8	X9	Y9	Z9	X10	Y10	Z10	X11	Y11	Z11	X12	Y12	Z12	X13	Y13	Z13	X14	Y14	Z14	X15	Y15	Z15	X16	Y16	Z16	X17	Y17	Z17	X18	Y18	Z18	X19	Y19	Z19	X20	Y20	Z20	X21	Y21	Z21
39	1.3333333333333275	0.4717362917172856	-0.024217638630655736	-0.17071539417201675	0.4766234984561185	-0.02668405418011477	-0.14839876349825032	0.47439410565976287	-0.03530244346467948	-0.11857305019748815	0.478357001531261	-0.03086934488976023	-0.07436294848603875	0.5066419976051268	-0.015820514701849975	-0.10575153308528562	0.5241802390685093	-0.01174755229170743	-0.10770628718175301	0.5334085124691608	0.008445973393111927	-0.11949909530617236	0.4912533234275397	0.013688125616669322	-0.12251504804622665	0.5052046878439558	-0.01644587834073641	-0.08686435148788674	0.5222690614747276	-0.010404656264796142	-0.0863068674804105	0.5372451817636527	0.012449699865100916	-0.09644608722255488	0.49682122397135725	0.030258484022665066	-0.10314674123809775	0.5024909816699177	-0.005559146989596364	-0.07296274423877747	0.5197605912760177	-0.0008713310612835645	-0.07077528775345931	0.5349103943395973	0.018378339726753956	-0.07526010889670809	0.5014008306638876	0.039729500709214105	-0.08274061028128343	0.5021201249963763	-0.006164433997284169	-0.05538233451605268	0.5186916850696134	-0.0030273003779046626	-0.05245970053396576	0.5302741228193935	0.0144291638944809	-0.053849308348927205	0.503423191133435	0.037923405321582226	-0.05913433799511436	0.46228308100186083	-0.023011742144276925	-0.051989820119430985
40	1.3666666666666607	0.4717060226022053	-0.024224606726440334	-0.17072224401106106	0.4765938431580002	-0.02668188598000898	-0.14840473991933228	0.47438884142316506	-0.03529278895986887	-0.11857505139898711	0.47835045185266606	-0.030884387499677368	-0.07436236499145632	0.5065674307411177	-0.015805531916807003	-0.10576005246580766	0.5241154757610037	-0.011769896095411791	-0.10770421282368037	0.5333886481128458	0.00840359293934545	-0.11949609340726652	0.4912386092312108	0.013679141019243835	-0.12252576479758925	0.505202722171475	-0.016455687239041672	-0.08682929272067008	0.5222567627216353	-0.010382017282306477	-0.08630945219691832	0.5372410363530075	0.012461970297281244	-0.09645998544418233	0.4968092378555034	0.030252972929959654	-0.10316056874575141	0.5024820690614062	-0.005537774376323412	-0.07297544372142872	0.5197493732481984	-0.000847203060432844	-0.07077572854638048	0.5348949473057143	0.01840279705655412	-0.07527340138511684	0.5013753815219697	0.03973676111562496	-0.08275815396589736	0.5021114748248265	-0.006140499805193045	-0.05537957990618014	0.5186899148139918	-0.0030263231023314185	-0.052471448033482915	0.5302676065693079	0.014433697889098762	-0.05385591168331538	0.5034165116037577	0.037926471839747844	-0.05914663207421733	0.46228308100186094	-0.023011742144276925	-0.051989820119430985
41	1.3999999999999937	0.471713707617269	-0.024139470519990214	-0.17072965892844527	0.4765890993054461	-0.026616048578666507	-0.14841156947154643	0.4743861804892139	-0.03524088989531782	-0.11858575412725664	0.4783419094373763	-0.030888729260145964	-0.07436696958613276	0.5065640444659096	-0.015788905217108185	-0.10575267532057875	0.5241183665469702	-0.011774485911230648	-0.10768405149082272	0.5334275694748525	0.008391913908135762	-0.1194596572999932	0.49128176117061584	0.01369524990394011	-0.12249965132928703	0.5052051449351449	-0.016498754005058514	-0.08679021325955416	0.522249806731284	-0.010397257366155155	-0.08628897178013717	0.5372744394485336	0.012431483654276376	-0.09641411598324978	0.4968573092424688	0.030249297783796703	-0.10313192861474518	0.5024735164559053	-0.005555114202627887	-0.07294522264764036	0.5197397473147597	-0.0008596885080283112	-0.0707474397932073	0.5349165889151997	0.01836753027198268	-0.07523715203574022	0.5014145619135947	0.039726314700138765	-0.08272963817421908	0.5021052037869138	-0.006164079848718806	-0.05535314006821912	0.5186875081786745	-0.003059568623912101	-0.05245673002921547	0.530283442828341	0.014389586552106093	-0.05382541634970939	0.5034530349547599	0.03790472143307888	-0.05912174487680655	0.46228308100186094	-0.023011742144276925	-0.051989820119430985
42	1.4333333333333271	0.47176300049126224	-0.024025713919478386	-0.17072888739288966	0.4766143527421664	-0.026528898344662988	-0.14840852787358172	0.47438925695138207	-0.035190091957884695	-0.11859489552332753	0.47833511479347546	-0.030894948441486547	-0.07436965444921317	0.5066139961077514	-0.015796017599990164	-0.1057125068091368	0.5241720259647981	-0.011790870061810454	-0.10762937423712182	0.533507652645349	0.00837880962054871	-0.1193784137294554	0.4913682393687349	0.013711439097557454	-0.1224555886617043	0.5052220706119732	-0.016524535973718946	-0.08673193432852522	0.5222592377103248	-0.010400698557931909	-0.08624866156097855	0.5373494552740898	0.012404600028241286	-0.09632900085456031	0.4969481170898054	0.030249288976957667	-0.10307043024621376	0.502442085002021	-0.005510566996715371	-0.07293379056505844	0.5197178198434371	-0.0008732558922871503	-0.07068783165852688	0.5349512859395851	0.018317757215262298	-0.07514052810039029	0.5014825234031436	0.03972221677009624	-0.08265131231009637	0.502111564266604	-0.006177193179120133	-0.055332166519541315	0.5186941312548841	-0.0031060614561539968	-0.0524018726743114	0.5303000865766812	0.014339345401898185	-0.053732887184178124	0.5034980952248537	0.037883053336117856	-0.059046127935802994	0.46228308100186083	-0.023011742144276925	-0.051989820119430985
43	1.4666666666666603	0.4718976912884067	-0.023789822381102277	-0.17071194489681835	0.47669768058844264	-0.02636367773664805	-0.1483885183827665	0.47442332952054933	-0.03510693542141663	-0.11860256914025114	0.47833736853246295	-0.03090091032572928	-0.0743659366790469	0.5066741028484766	-0.0158795743743666	-0.10558156127318796	0.5242454647093415	-0.011909626033550724	-0.10744884607358451	0.5336733332356377	0.008257941768692434	-0.1191276446844346	0.4915640522449737	0.013732935354630382	-0.12236322711782271	0.5052206454997354	-0.01662357992334229	-0.08663279370332166	0.5222634598803475	-0.010519237277860638	-0.08610413610661605	0.5374669594664286	0.012247914746699062	-0.09610013225640623	0.49714624547242847	0.030231642126159697	-0.10295385340300045	0.5024248074776807	-0.0055775965624825785	-0.07284987168751977	0.5197115205686056	-0.0010121689166242565	-0.07054196767684595	0.5350231598985956	0.018134743037392376	-0.07491568950767058	0.5016625021649938	0.03967713125958161	-0.08251258751053758	0.5021083147588167	-0.0062407309874109584	-0.055253703538496235	0.5186914146478577	-0.003231481175594242	-0.0522628485369675	0.5303402655828142	0.01418934684465245	-0.053539971077739446	0.503621705567178	0.03781484023713455	-0.058910079424191464	0.4622830810018609	-0.023011742144276925	-0.051989820119430985
44	1.4999999999999936	0.472330270692771	-0.023560779952585986	-0.1706849880126448	0.47697860326165664	-0.026211268639823593	-0.1483384465789495	0.47460384548768164	-0.03504207361059086	-0.11858617928579657	0.4783776092196846	-0.0309230730900929	-0.07432917371597558	0.5065875014292947	-0.015936875869154044	-0.1053775546838035	0.5242055625871456	-0.01209263455343279	-0.10705854538714532	0.5338535458085985	0.008035014415757713	-0.11862591326975436	0.491809053393016	0.013761529923935978	-0.12224582648012544	0.50504313529361	-0.016794817733837175	-0.08637682344866215	0.52208737160004	-0.010701882071951552	-0.08576842904476523	0.5375040418628005	0.011981696946317455	-0.09562698223127619	0.4973622982195929	0.030240881271653253	-0.1027957008096847	0.5023003271750976	-0.0056720170206630005	-0.07264630772836367	0.5195919435972314	-0.0011866752907307987	-0.07022108380560454	0.5350190026290401	0.017889102400190926	-0.07449899616043631	0.5018539684591674	0.039658498885775106	-0.0823025030108604	0.5019723118993417	-0.006342322072694584	-0.055009508195662526	0.5185561204397261	-0.003388702853872494	-0.05196756345486364	0.5302819990977076	0.013985762754158748	-0.053169118086845324	0.5037300408584884	0.03776745750921662	-0.05867438458720797	0.46228308100186083	-0.023011742144276925	-0.051989820119430985
45	1.5333333333333266	0.47287889980576453	-0.02358147878919792	-0.17069400010727942	0.4773126729380118	-0.026248462744619228	-0.14830585921989697	0.4748153741714807	-0.03506619180751269	-0.11855974765814681	0.47842340914149784	-0.030941913705922364	-0.07428941432084435	0.5059432979280188	-0.015770322579876206	-0.10519880165968065	0.5236604539740898	-0.012270866319440965	-0.10656122138959945	0.5338680705579287	0.007653360794696695	-0.1179997339931505	0.491933575109737	0.013791801945092663	-0.12217749963386298	0.5043481355891685	-0.016762898986531494	-0.08617436200601714	0.5214415977865954	-0.010830044407543316	-0.0853902786879216	0.5373033780728462	0.011597662125900965	-0.09512739611560006	0.49742605498511283	0.03025254718327075	-0.10273937929036148	0.5016410205869304	-0.005697609270729154	-0.07243293002022722	0.5189650473036915	-0.0014387264455758553	-0.06983677605742644	0.5346761851434285	0.01742397058108569	-0.07402470963631158	0.5019177465520557	0.03966646673132668	-0.08220253942555122	0.5014037652474646	-0.006278817221985977	-0.054754907462553515	0.5180142297916102	-0.003578411229878342	-0.0516243683547527	0.5299353918431009	0.013664324777405534	-0.05280164033913426	0.50373505567365	0.03777874446973151	-0.05853928781088813	0.46228308100186083	-0.023011742144276925	-0.051989820119430985
